<svg xmlns="http://www.w3.org/2000/svg" xmlns:xlink="http://www.w3.org/1999/xlink" width="1070" height="350.52"><rect width="1070" height="350.52" rx="5" ry="5" class="a"/><svg y="0%" x="0%"><circle cx="20" cy="20" r="6" fill="#ff5f58"/><circle cx="40" cy="20" r="6" fill="#ffbd2e"/><circle cx="60" cy="20" r="6" fill="#18c132"/></svg><svg height="260.52" viewBox="0 0 100 26.052" width="1000" x="30" xmlns="http://www.w3.org/2000/svg" xmlns:xlink="http://www.w3.org/1999/xlink" y="65"><style>@keyframes l{0%{transform:translateX(-100px)}20%{transform:translateX(-200px)}40%{transform:translateX(-300px)}60%{transform:translateX(-400px)}80%{transform:translateX(-500px)}to{transform:translateX(-600px)}}.a{fill:#fff}.f{fill:#33bbc8;font-weight:700;white-space:pre}.g,.i,.j,.n{fill:#818383;white-space:pre}.i,.j,.n{fill:#25bc24}.j,.n{fill:#33bbc8}.n{fill:#492ee1}</style><g font-family="Monaco,Consolas,Menlo,'Bitstream Vera Sans Mono','Powerline Symbols',monospace" font-size="1.67"><defs><symbol id="1"><text y="1.67" class="f">[Opus</text><text x="6.012" y="1.67" class="f">4.6</text><text x="10.02" y="1.67" class="f">(1M</text><text x="14.028" y="1.67" class="f">context)]</text><text x="25.05" y="1.67" class="g">~/claude-vitals</text><text x="42.084" y="1.67" style="white-space:pre" fill="#d338d3">main</text><text x="48.096" y="1.67" class="g">⏱</text><text x="50.1" y="1.67" class="g">1h</text><text x="53.106" y="1.67" class="g">14m</text></symbol><symbol id="2"><text y="1.67" class="i">██████</text><text x="6.012" y="1.67" class="g">░░░░░░░░░</text><text x="17.034" y="1.67" class="i">42%</text><text x="22.044" y="1.67" class="g">(420k</text><text x="28.056" y="1.67" class="g">/</text><text x="30.06" y="1.67" class="g">1.0M)</text><text x="37.074" y="1.67" class="g">~$9.20</text></symbol><symbol id="3"><text y="1.67" class="j">◐</text><text x="2.004" y="1.67" class="j">Bash:</text><text x="8.016" y="1.67" class="j">npm</text><text x="12.024" y="1.67" class="j">run</text><text x="16.032" y="1.67" class="j">build</text><text x="22.044" y="1.67" class="g">│</text><text x="24.048" y="1.67" class="i">✓</text><text x="26.052" y="1.67" class="i">Read</text><text x="31.062" y="1.67" class="i">×3</text><text x="34.068" y="1.67" class="g">│</text><text x="36.072" y="1.67" class="i">✓</text><text x="38.076" y="1.67" class="i">Grep</text><text x="43.086" y="1.67" class="g">│</text><text x="45.09" y="1.67" class="i">✓</text><text x="47.094" y="1.67" class="i">Edit</text><text x="52.104" y="1.67" class="i">×2</text><text x="55.11" y="1.67" class="g">│</text><text x="57.114" y="1.67" class="i">✓</text><text x="59.118" y="1.67" class="i">Bash</text></symbol><symbol id="4"><text y="1.67" class="j">◐</text><text x="2.004" y="1.67" class="j">AGENT:</text><text x="9.018" y="1.67" class="j">Explore</text><text x="17.034" y="1.67" class="g">[sonnet]:</text><text x="27.054" y="1.67" class="g">Searching</text><text x="37.074" y="1.67" class="g">for</text><text x="41.082" y="1.67" class="g">security</text><text x="50.1" y="1.67" class="g">vulnerabilities</text><text x="66.132" y="1.67" class="g">(1h</text><text x="70.14" y="1.67" class="g">13m)</text></symbol><symbol id="5"><text y="1.67" class="j">▸</text><text x="2.004" y="1.67" class="j">Tasks</text><text x="8.016" y="1.67" class="j">2/5</text><text x="13.026" y="1.67" class="j">████</text><text x="17.034" y="1.67" class="g">░░░░░░</text></symbol><symbol id="a"><path fill="transparent" d="M0 0h100v13H0z"/></symbol></defs><path class="a" d="M0 0h100v26.052H0z"/><g style="animation-duration:.5s;animation-iteration-count:infinite;animation-name:l;animation-timing-function:steps(1,end)"><svg width="700"><svg><use xlink:href="#a"/></svg><svg x="100"><use xlink:href="#a"/><use xlink:href="#1"/></svg><svg x="200"><use xlink:href="#a"/><use xlink:href="#1"/><use xlink:href="#2" y="2.171"/></svg><svg x="300"><use xlink:href="#a"/><use xlink:href="#1"/><use xlink:href="#2" y="2.171"/><use xlink:href="#3" y="4.342"/></svg><svg x="400"><use xlink:href="#a"/><use xlink:href="#1"/><use xlink:href="#2" y="2.171"/><use xlink:href="#3" y="4.342"/><use xlink:href="#4" y="6.513"/></svg><svg x="500"><use xlink:href="#a"/><use xlink:href="#1"/><use xlink:href="#2" y="2.171"/><use xlink:href="#3" y="4.342"/><use xlink:href="#4" y="6.513"/><use xlink:href="#5" y="8.684"/></svg><svg x="600"><use xlink:href="#a"/><use xlink:href="#1"/><use xlink:href="#2" y="2.171"/><use xlink:href="#3" y="4.342"/><use xlink:href="#4" y="6.513"/><use xlink:href="#5" y="8.684"/><text y="12.525" class="g">5h:</text><text x="4.008" y="12.525" class="n">█</text><text x="5.01" y="12.525" class="g">░░░░░░░</text><text x="14.028" y="12.525" class="n">12%</text><text x="18.036" y="12.525" class="g">resets</text><text x="25.05" y="12.525" class="g">in</text><text x="28.056" y="12.525" class="g">3h</text><text x="31.062" y="12.525" class="g">59m</text><text x="36.072" y="12.525" class="g">7d:</text><text x="40.08" y="12.525" class="n">███</text><text x="43.086" y="12.525" class="g">░░░░░</text><text x="50.1" y="12.525" class="n">39%</text><text x="54.108" y="12.525" class="g">resets</text><text x="61.122" y="12.525" class="g">Sat</text><text x="65.13" y="12.525" class="g">11:14</text><text x="71.142" y="12.525" class="g">PM</text></svg></svg></g></g></svg></svg>